<svg width="1000" height="1000" viewBox="0 0 1000 1000" fill="none" xmlns="http://www.w3.org/2000/svg">
<rect width="1000" height="1000" rx="500" fill="#2940D3"/>
<path d="M438.238 260.26L302.769 395.729C287.203 411.295 287.14 436.514 302.629 452.157L449.438 600.434C463.512 614.649 486.462 614.706 500.607 600.562C514.669 586.5 514.706 563.713 500.691 549.604L404.004 452.272C388.427 436.591 388.52 411.249 404.213 395.683L489.176 311.405C496.096 304.541 499.946 295.17 499.849 285.424C499.532 253.443 460.853 237.645 438.238 260.26Z" fill="#FFC947"/>
<path d="M560.217 739.552L697.036 603.339C712.688 587.755 712.748 562.435 697.169 546.778L551.052 399.931C536.698 385.504 513.357 385.475 498.966 399.866C484.6 414.231 484.6 437.522 498.966 451.888L594.033 546.955C609.61 562.531 609.661 587.77 594.148 603.409L509.409 688.836C502.74 695.559 498.998 704.645 498.998 714.115C498.998 746.055 537.582 762.087 560.217 739.552Z" fill="#FFC947"/>
<path d="M438.238 260.26L302.769 395.729C287.203 411.295 287.14 436.514 302.629 452.157L449.438 600.434C463.512 614.649 486.462 614.706 500.607 600.561C514.669 586.5 514.706 563.713 500.691 549.604L404.004 452.272C388.427 436.591 388.52 411.249 404.213 395.683L489.176 311.405C496.096 304.541 499.946 295.17 499.849 285.424C499.532 253.443 460.853 237.645 438.238 260.26Z" fill="white"/>
</svg>
